<?xml version="1.0" encoding="UTF-8" standalone="no"?>
<svg width="442.736mm" height="25.4mm"
 xmlns="http://www.w3.org/2000/svg" xmlns:xlink="http://www.w3.org/1999/xlink"  version="1.2" baseProfile="tiny">
<title>Qt SVG Document</title>
<desc>Generated with Qt</desc>
<defs>
</defs>
<g fill="none" stroke="black" stroke-width="1" fill-rule="evenodd" stroke-linecap="square" stroke-linejoin="bevel" >

<g fill="none" stroke="#000000" stroke-opacity="1" stroke-width="1" stroke-linecap="square" stroke-linejoin="bevel" transform="matrix(1,0,0,1,0,0)"
font-family="Ubuntu" font-size="11" font-weight="400" font-style="normal" 
>
</g>

<g fill="none" stroke="#000000" stroke-opacity="1" stroke-width="1" stroke-linecap="square" stroke-linejoin="bevel" transform="matrix(1,0,0,1,0,0)"
font-family="Ubuntu" font-size="11" font-weight="400" font-style="normal" 
>
</g>

<g fill="none" stroke="#000000" stroke-opacity="1" stroke-width="1" stroke-linecap="square" stroke-linejoin="bevel" transform="matrix(1.99954,0,0,1.99954,-0.00799816,71.9835)"
font-family="Ubuntu" font-size="11" font-weight="400" font-style="normal" 
>
</g>

<g fill="#ffffff" fill-opacity="1" stroke="none" transform="matrix(1.99954,0,0,1.99954,-0.00799816,71.9835)"
font-family="Ubuntu" font-size="11" font-weight="400" font-style="normal" 
>
<rect x="0.004" y="-36" width="627.644" height="36"/>
</g>

<g fill="none" stroke="#000000" stroke-opacity="1" stroke-width="1" stroke-linecap="square" stroke-linejoin="bevel" transform="matrix(1.99954,0,0,1.99954,-0.00799816,71.9835)"
font-family="Ubuntu" font-size="11" font-weight="400" font-style="normal" 
>
</g>

<g fill="none" stroke="#000000" stroke-opacity="1" stroke-width="1" stroke-linecap="square" stroke-linejoin="bevel" transform="matrix(1.99954,0,0,1.99954,-0.00799816,71.9835)"
font-family="Ubuntu" font-size="11" font-weight="400" font-style="normal" 
>
</g>

<g fill="none" stroke="#000000" stroke-opacity="1" stroke-width="1" stroke-linecap="square" stroke-linejoin="bevel" transform="matrix(1.99954,0,0,1.99954,-0.00799816,71.9835)"
font-family="Ubuntu" font-size="11" font-weight="400" font-style="normal" 
>
</g>

<g fill="none" stroke="#000000" stroke-opacity="1" stroke-width="1" stroke-linecap="square" stroke-linejoin="bevel" transform="matrix(1.99954,0,0,1.99954,-0.00799816,71.9835)"
font-family="Ubuntu" font-size="11" font-weight="400" font-style="normal" 
>
</g>

<g fill="none" stroke="#000000" stroke-opacity="1" stroke-width="1" stroke-linecap="square" stroke-linejoin="round" transform="matrix(1.99954,0,0,1.99954,-0.00799816,71.9835)"
font-family="Ubuntu" font-size="11" font-weight="400" font-style="normal" 
>
<ellipse cx="500.91" cy="-18" rx="126.238" ry="17.5"/>
</g>

<g fill="none" stroke="#000000" stroke-opacity="1" stroke-width="1" stroke-linecap="square" stroke-linejoin="bevel" transform="matrix(1.99954,0,0,1.99954,-0.00799816,71.9835)"
font-family="Ubuntu" font-size="11" font-weight="400" font-style="normal" 
>
</g>

<g fill="none" stroke="#000000" stroke-opacity="1" stroke-width="1" stroke-linecap="square" stroke-linejoin="bevel" transform="matrix(1.99954,0,0,1.99954,820.061,22.9947)"
font-family="Ubuntu" font-size="11" font-weight="400" font-style="normal" 
>
</g>

<g fill="none" stroke="#000000" stroke-opacity="1" stroke-width="1" stroke-linecap="square" stroke-linejoin="bevel" transform="matrix(1.99954,0,0,1.99954,820.061,22.9947)"
font-family="sans" font-size="11" font-weight="100" font-style="normal" 
>
</g>

<g fill="#000000" fill-opacity="1" stroke="#000000" stroke-opacity="1" stroke-width="1" stroke-linecap="square" stroke-linejoin="round" transform="matrix(1.99954,0,0,1.99954,820.061,22.9947)"
font-family="sans" font-size="11" font-weight="100" font-style="normal" 
>
<path vector-effect="none" fill-rule="nonzero" d="M2.79688,1.98438 L3.70313,1.98438 L0.90625,11.0156 L0,11.0156 L2.79688,1.98438 M4.73438,1.64063 L5.73438,1.64063 L5.73438,10 L4.73438,10 L4.73438,1.64063 M7.78125,3.98438 L8.78125,3.98438 L8.78125,10 L7.78125,10 L7.78125,3.98438 M7.78125,1.64063 L8.78125,1.64063 L8.78125,2.89063 L7.78125,2.89063 L7.78125,1.64063 M14.6719,4.15625 L14.6719,5.09375 C14.3906,4.94792 14.099,4.84115 13.7969,4.77344 C13.4948,4.70573 13.1823,4.67188 12.8594,4.67188 C12.3698,4.67188 12.0026,4.7474 11.7578,4.89844 C11.513,5.04948 11.3906,5.27083 11.3906,5.5625 C11.3906,5.79167 11.4792,5.97135 11.6563,6.10156 C11.8333,6.23177 12.1875,6.35938 12.7188,6.48438 L13.0469,6.5625 C13.7552,6.70833 14.2552,6.91927 14.5469,7.19531 C14.8385,7.47135 14.9844,7.85417 14.9844,8.34375 C14.9844,8.89583 14.7656,9.33594 14.3281,9.66406 C13.8906,9.99219 13.2813,10.1563 12.5,10.1563 C12.1771,10.1563 11.8411,10.125 11.4922,10.0625 C11.1432,10 10.776,9.90625 10.3906,9.78125 L10.3906,8.76563 C10.7552,8.95313 11.1146,9.09375 11.4688,9.1875 C11.8229,9.28125 12.1771,9.32813 12.5313,9.32813 C12.9896,9.32813 13.3438,9.2474 13.5938,9.08594 C13.8438,8.92448 13.9688,8.70313 13.9688,8.42188 C13.9688,8.15104 13.8802,7.94271 13.7031,7.79688 C13.526,7.65104 13.1302,7.51563 12.5156,7.39063 L12.1719,7.29688 C11.5573,7.17188 11.1146,6.97656 10.8438,6.71094 C10.5729,6.44531 10.4375,6.07813 10.4375,5.60938 C10.4375,5.04688 10.638,4.61198 11.0391,4.30469 C11.4401,3.9974 12.0104,3.84375 12.75,3.84375 C13.1146,3.84375 13.4583,3.86979 13.7813,3.92188 C14.1042,3.97396 14.401,4.05208 14.6719,4.15625 M17.5313,2.28125 L17.5313,3.98438 L19.5625,3.98438 L19.5625,4.75 L17.5313,4.75 L17.5313,8.01563 C17.5313,8.50521 17.599,8.82031 17.7344,8.96094 C17.8698,9.10156 18.1406,9.17188 18.5469,9.17188 L19.5625,9.17188 L19.5625,10 L18.5469,10 C17.7865,10 17.2604,9.85677 16.9688,9.57031 C16.6771,9.28385 16.5313,8.76563 16.5313,8.01563 L16.5313,4.75 L15.8125,4.75 L15.8125,3.98438 L16.5313,3.98438 L16.5313,2.28125 L17.5313,2.28125 M26.0156,6.75 L26.0156,7.23438 L21.4688,7.23438 C21.5104,7.91146 21.7135,8.42708 22.0781,8.78125 C22.4427,9.13542 22.9531,9.3125 23.6094,9.3125 C23.9948,9.3125 24.3646,9.26563 24.7188,9.17188 C25.0729,9.07813 25.4271,8.94271 25.7813,8.76563 L25.7813,9.6875 C25.4271,9.84375 25.0625,9.96094 24.6875,10.0391 C24.3125,10.1172 23.9375,10.1563 23.5625,10.1563 C22.5938,10.1563 21.8307,9.8776 21.2734,9.32031 C20.7161,8.76302 20.4375,8.00521 20.4375,7.04688 C20.4375,6.06771 20.7031,5.28906 21.2344,4.71094 C21.7656,4.13281 22.4844,3.84375 23.3906,3.84375 C24.1927,3.84375 24.8307,4.10417 25.3047,4.625 C25.7786,5.14583 26.0156,5.85417 26.0156,6.75 M25.0156,6.45313 C25.0156,5.91146 24.8672,5.47917 24.5703,5.15625 C24.2734,4.83333 23.8802,4.67188 23.3906,4.67188 C22.8385,4.67188 22.3984,4.82813 22.0703,5.14063 C21.7422,5.45313 21.5521,5.89063 21.5,6.45313 L25.0156,6.45313 M32.625,6.375 L32.625,10 L31.6406,10 L31.6406,6.40625 C31.6406,5.83333 31.5313,5.40625 31.3125,5.125 C31.0938,4.84375 30.7604,4.70313 30.3125,4.70313 C29.7813,4.70313 29.362,4.8724 29.0547,5.21094 C28.7474,5.54948 28.5938,6.01042 28.5938,6.59375 L28.5938,10 L27.5938,10 L27.5938,3.98438 L28.5938,3.98438 L28.5938,4.92188 C28.8229,4.55729 29.099,4.28646 29.4219,4.10938 C29.7448,3.93229 30.1146,3.84375 30.5313,3.84375 C31.2188,3.84375 31.7396,4.05729 32.0938,4.48438 C32.4479,4.91146 32.625,5.54167 32.625,6.375 M39.75,6.75 L39.75,7.23438 L35.2031,7.23438 C35.2448,7.91146 35.4479,8.42708 35.8125,8.78125 C36.1771,9.13542 36.6875,9.3125 37.3438,9.3125 C37.7292,9.3125 38.099,9.26563 38.4531,9.17188 C38.8073,9.07813 39.1615,8.94271 39.5156,8.76563 L39.5156,9.6875 C39.1615,9.84375 38.7969,9.96094 38.4219,10.0391 C38.0469,10.1172 37.6719,10.1563 37.2969,10.1563 C36.3281,10.1563 35.5651,9.8776 35.0078,9.32031 C34.4505,8.76302 34.1719,8.00521 34.1719,7.04688 C34.1719,6.06771 34.4375,5.28906 34.9688,4.71094 C35.5,4.13281 36.2188,3.84375 37.125,3.84375 C37.9271,3.84375 38.5651,4.10417 39.0391,4.625 C39.513,5.14583 39.75,5.85417 39.75,6.75 M38.75,6.45313 C38.75,5.91146 38.6016,5.47917 38.3047,5.15625 C38.0078,4.83333 37.6146,4.67188 37.125,4.67188 C36.5729,4.67188 36.1328,4.82813 35.8047,5.14063 C35.4766,5.45313 35.2865,5.89063 35.2344,6.45313 L38.75,6.45313 M44.8438,4.90625 C44.7396,4.84375 44.6224,4.79688 44.4922,4.76563 C44.362,4.73438 44.2188,4.71875 44.0625,4.71875 C43.5,4.71875 43.0703,4.90104 42.7734,5.26563 C42.4766,5.63021 42.3281,6.15104 42.3281,6.82813 L42.3281,10 L41.3281,10 L41.3281,3.98438 L42.3281,3.98438 L42.3281,4.92188 C42.526,4.55729 42.7917,4.28646 43.125,4.10938 C43.4583,3.93229 43.8646,3.84375 44.3438,3.84375 C44.4167,3.84375 44.4922,3.84635 44.5703,3.85156 C44.6484,3.85677 44.7396,3.86979 44.8438,3.89063 L44.8438,4.90625 M50.4531,11.8281 L50.4531,12.5938 L44.7344,12.5938 L44.7344,11.8281 L50.4531,11.8281 M51.7031,9.09375 L53.4844,9.09375 L53.4844,2.96875 L51.5469,3.35938 L51.5469,2.375 L53.4688,1.98438 L54.5625,1.98438 L54.5625,9.09375 L56.3281,9.09375 L56.3281,10 L51.7031,10 L51.7031,9.09375 M60.8281,2.6875 C60.2656,2.6875 59.8438,2.96354 59.5625,3.51563 C59.2813,4.06771 59.1406,4.89583 59.1406,6 C59.1406,7.09375 59.2813,7.91667 59.5625,8.46875 C59.8438,9.02083 60.2656,9.29688 60.8281,9.29688 C61.3906,9.29688 61.8125,9.02083 62.0938,8.46875 C62.375,7.91667 62.5156,7.09375 62.5156,6 C62.5156,4.89583 62.375,4.06771 62.0938,3.51563 C61.8125,2.96354 61.3906,2.6875 60.8281,2.6875 M60.8281,1.82813 C61.724,1.82813 62.4089,2.1849 62.8828,2.89844 C63.3568,3.61198 63.5938,4.64583 63.5938,6 C63.5938,7.34375 63.3568,8.3724 62.8828,9.08594 C62.4089,9.79948 61.724,10.1563 60.8281,10.1563 C59.9323,10.1563 59.2448,9.79948 58.7656,9.08594 C58.2865,8.3724 58.0469,7.34375 58.0469,6 C58.0469,4.64583 58.2865,3.61198 58.7656,2.89844 C59.2448,2.1849 59.9323,1.82813 60.8281,1.82813 M68.7813,5.67188 C69.3021,5.78646 69.7083,6.01823 70,6.36719 C70.2917,6.71615 70.4375,7.15104 70.4375,7.67188 C70.4375,8.46354 70.1641,9.07552 69.6172,9.50781 C69.0703,9.9401 68.2969,10.1563 67.2969,10.1563 C66.9531,10.1563 66.6042,10.1224 66.25,10.0547 C65.8958,9.98698 65.5313,9.89063 65.1563,9.76563 L65.1563,8.70313 C65.4583,8.88021 65.7865,9.01563 66.1406,9.10938 C66.4948,9.20313 66.8698,9.25 67.2656,9.25 C67.9427,9.25 68.4583,9.11458 68.8125,8.84375 C69.1667,8.57292 69.3438,8.18229 69.3438,7.67188 C69.3438,7.19271 69.1797,6.82031 68.8516,6.55469 C68.5234,6.28906 68.0625,6.15625 67.4688,6.15625 L66.5313,6.15625 L66.5313,5.26563 L67.5156,5.26563 C68.0469,5.26563 68.4531,5.15885 68.7344,4.94531 C69.0156,4.73177 69.1563,4.42708 69.1563,4.03125 C69.1563,3.61458 69.0104,3.29688 68.7188,3.07813 C68.4271,2.85938 68.0104,2.75 67.4688,2.75 C67.1771,2.75 66.8594,2.78125 66.5156,2.84375 C66.1719,2.90625 65.7969,3.00521 65.3906,3.14063 L65.3906,2.17188 C65.8073,2.05729 66.1953,1.97135 66.5547,1.91406 C66.9141,1.85677 67.25,1.82813 67.5625,1.82813 C68.3854,1.82813 69.0391,2.01563 69.5234,2.39063 C70.0078,2.76563 70.25,3.27604 70.25,3.92188 C70.25,4.35938 70.1224,4.73177 69.8672,5.03906 C69.612,5.34635 69.25,5.55729 68.7813,5.67188 M73.4063,9.09375 L77.1875,9.09375 L77.1875,10 L72.1094,10 L72.1094,9.09375 C72.5156,8.66667 73.0755,8.09375 73.7891,7.375 C74.5026,6.65625 74.9479,6.19271 75.125,5.98438 C75.4688,5.58854 75.7109,5.25521 75.8516,4.98438 C75.9922,4.71354 76.0625,4.44792 76.0625,4.1875 C76.0625,3.76042 75.9141,3.41406 75.6172,3.14844 C75.3203,2.88281 74.9271,2.75 74.4375,2.75 C74.1042,2.75 73.7474,2.8099 73.3672,2.92969 C72.987,3.04948 72.5833,3.22917 72.1563,3.46875 L72.1563,2.375 C72.5938,2.19792 73.0026,2.0625 73.3828,1.96875 C73.763,1.875 74.1094,1.82813 74.4219,1.82813 C75.2552,1.82813 75.9193,2.03646 76.4141,2.45313 C76.9089,2.86979 77.1563,3.42708 77.1563,4.125 C77.1563,4.45833 77.0938,4.77083 76.9688,5.0625 C76.8438,5.35417 76.6198,5.70313 76.2969,6.10938 C76.2031,6.21354 75.9167,6.51302 75.4375,7.00781 C74.9583,7.5026 74.2813,8.19792 73.4063,9.09375 M81.7813,6.1875 C81.2604,6.1875 80.8542,6.32552 80.5625,6.60156 C80.2708,6.8776 80.125,7.26042 80.125,7.75 C80.125,8.22917 80.2708,8.60677 80.5625,8.88281 C80.8542,9.15885 81.2604,9.29688 81.7813,9.29688 C82.2917,9.29688 82.6953,9.15885 82.9922,8.88281 C83.2891,8.60677 83.4375,8.22917 83.4375,7.75 C83.4375,7.26042 83.2917,6.8776 83,6.60156 C82.7083,6.32552 82.3021,6.1875 81.7813,6.1875 M80.6875,5.73438 C80.2292,5.61979 79.8698,5.40365 79.6094,5.08594 C79.349,4.76823 79.2188,4.38021 79.2188,3.92188 C79.2188,3.27604 79.4453,2.76563 79.8984,2.39063 C80.3516,2.01563 80.9792,1.82813 81.7813,1.82813 C82.5729,1.82813 83.1979,2.01563 83.6563,2.39063 C84.1146,2.76563 84.3438,3.27604 84.3438,3.92188 C84.3438,4.38021 84.2135,4.76823 83.9531,5.08594 C83.6927,5.40365 83.3333,5.61979 82.875,5.73438 C83.3958,5.84896 83.8021,6.08333 84.0938,6.4375 C84.3854,6.79167 84.5313,7.22917 84.5313,7.75 C84.5313,8.52083 84.2943,9.11458 83.8203,9.53125 C83.3464,9.94792 82.6667,10.1563 81.7813,10.1563 C80.8958,10.1563 80.2161,9.94792 79.7422,9.53125 C79.2682,9.11458 79.0313,8.52083 79.0313,7.75 C79.0313,7.22917 79.1771,6.79167 79.4688,6.4375 C79.7604,6.08333 80.1667,5.84896 80.6875,5.73438 M80.2969,4.01563 C80.2969,4.43229 80.4271,4.75781 80.6875,4.99219 C80.9479,5.22656 81.3125,5.34375 81.7813,5.34375 C82.2396,5.34375 82.6016,5.22656 82.8672,4.99219 C83.1328,4.75781 83.2656,4.43229 83.2656,4.01563 C83.2656,3.59896 83.1328,3.27344 82.8672,3.03906 C82.6016,2.80469 82.2396,2.6875 81.7813,2.6875 C81.3125,2.6875 80.9479,2.80469 80.6875,3.03906 C80.4271,3.27344 80.2969,3.59896 80.2969,4.01563 M90.875,11.8281 L90.875,12.5938 L85.1563,12.5938 L85.1563,11.8281 L90.875,11.8281 M92.125,9.09375 L93.9063,9.09375 L93.9063,2.96875 L91.9688,3.35938 L91.9688,2.375 L93.8906,1.98438 L94.9844,1.98438 L94.9844,9.09375 L96.75,9.09375 L96.75,10 L92.125,10 L92.125,9.09375 M98.9375,1.98438 L103.203,1.98438 L103.203,2.89063 L99.9375,2.89063 L99.9375,4.85938 C100.094,4.80729 100.25,4.76823 100.406,4.74219 C100.563,4.71615 100.719,4.70313 100.875,4.70313 C101.771,4.70313 102.479,4.94792 103,5.4375 C103.521,5.92708 103.781,6.58854 103.781,7.42188 C103.781,8.28646 103.513,8.95833 102.977,9.4375 C102.44,9.91667 101.682,10.1563 100.703,10.1563 C100.37,10.1563 100.029,10.1276 99.6797,10.0703 C99.3307,10.013 98.9688,9.92708 98.5938,9.8125 L98.5938,8.71875 C98.9167,8.89583 99.25,9.02865 99.5938,9.11719 C99.9375,9.20573 100.302,9.25 100.688,9.25 C101.313,9.25 101.805,9.08594 102.164,8.75781 C102.523,8.42969 102.703,7.98438 102.703,7.42188 C102.703,6.86979 102.523,6.42969 102.164,6.10156 C101.805,5.77344 101.313,5.60938 100.688,5.60938 C100.396,5.60938 100.107,5.64323 99.8203,5.71094 C99.5339,5.77865 99.2396,5.88021 98.9375,6.01563 L98.9375,1.98438 M106.094,9.09375 L107.875,9.09375 L107.875,2.96875 L105.938,3.35938 L105.938,2.375 L107.859,1.98438 L108.953,1.98438 L108.953,9.09375 L110.719,9.09375 L110.719,10 L106.094,10 L106.094,9.09375 M115.219,6.1875 C114.698,6.1875 114.292,6.32552 114,6.60156 C113.708,6.8776 113.563,7.26042 113.563,7.75 C113.563,8.22917 113.708,8.60677 114,8.88281 C114.292,9.15885 114.698,9.29688 115.219,9.29688 C115.729,9.29688 116.133,9.15885 116.43,8.88281 C116.727,8.60677 116.875,8.22917 116.875,7.75 C116.875,7.26042 116.729,6.8776 116.438,6.60156 C116.146,6.32552 115.74,6.1875 115.219,6.1875 M114.125,5.73438 C113.667,5.61979 113.307,5.40365 113.047,5.08594 C112.786,4.76823 112.656,4.38021 112.656,3.92188 C112.656,3.27604 112.883,2.76563 113.336,2.39063 C113.789,2.01563 114.417,1.82813 115.219,1.82813 C116.01,1.82813 116.635,2.01563 117.094,2.39063 C117.552,2.76563 117.781,3.27604 117.781,3.92188 C117.781,4.38021 117.651,4.76823 117.391,5.08594 C117.13,5.40365 116.771,5.61979 116.313,5.73438 C116.833,5.84896 117.24,6.08333 117.531,6.4375 C117.823,6.79167 117.969,7.22917 117.969,7.75 C117.969,8.52083 117.732,9.11458 117.258,9.53125 C116.784,9.94792 116.104,10.1563 115.219,10.1563 C114.333,10.1563 113.654,9.94792 113.18,9.53125 C112.706,9.11458 112.469,8.52083 112.469,7.75 C112.469,7.22917 112.615,6.79167 112.906,6.4375 C113.198,6.08333 113.604,5.84896 114.125,5.73438 M113.734,4.01563 C113.734,4.43229 113.865,4.75781 114.125,4.99219 C114.385,5.22656 114.75,5.34375 115.219,5.34375 C115.677,5.34375 116.039,5.22656 116.305,4.99219 C116.57,4.75781 116.703,4.43229 116.703,4.01563 C116.703,3.59896 116.57,3.27344 116.305,3.03906 C116.039,2.80469 115.677,2.6875 115.219,2.6875 C114.75,2.6875 114.385,2.80469 114.125,3.03906 C113.865,3.27344 113.734,3.59896 113.734,4.01563 M120.063,9.09375 L121.844,9.09375 L121.844,2.96875 L119.906,3.35938 L119.906,2.375 L121.828,1.98438 L122.922,1.98438 L122.922,9.09375 L124.688,9.09375 L124.688,10 L120.063,10 L120.063,9.09375 M127.047,9.09375 L128.828,9.09375 L128.828,2.96875 L126.891,3.35938 L126.891,2.375 L128.813,1.98438 L129.906,1.98438 L129.906,9.09375 L131.672,9.09375 L131.672,10 L127.047,10 L127.047,9.09375 M134.031,9.09375 L135.813,9.09375 L135.813,2.96875 L133.875,3.35938 L133.875,2.375 L135.797,1.98438 L136.891,1.98438 L136.891,9.09375 L138.656,9.09375 L138.656,10 L134.031,10 L134.031,9.09375 M143.813,2.92188 L141.078,7.20313 L143.813,7.20313 L143.813,2.92188 M143.531,1.98438 L144.891,1.98438 L144.891,7.20313 L146.031,7.20313 L146.031,8.10938 L144.891,8.10938 L144.891,10 L143.813,10 L143.813,8.10938 L140.188,8.10938 L140.188,7.0625 L143.531,1.98438 M150.797,2.92188 L148.063,7.20313 L150.797,7.20313 L150.797,2.92188 M150.516,1.98438 L151.875,1.98438 L151.875,7.20313 L153.016,7.20313 L153.016,8.10938 L151.875,8.10938 L151.875,10 L150.797,10 L150.797,8.10938 L147.172,8.10938 L147.172,7.0625 L150.516,1.98438 M154.828,9.82813 L154.828,8.84375 C155.099,8.96875 155.375,9.06771 155.656,9.14063 C155.938,9.21354 156.214,9.25 156.484,9.25 C157.203,9.25 157.75,9.00781 158.125,8.52344 C158.5,8.03906 158.714,7.30729 158.766,6.32813 C158.557,6.63021 158.294,6.86458 157.977,7.03125 C157.659,7.19792 157.307,7.28125 156.922,7.28125 C156.12,7.28125 155.484,7.03906 155.016,6.55469 C154.547,6.07031 154.313,5.40625 154.313,4.5625 C154.313,3.73958 154.557,3.07813 155.047,2.57813 C155.536,2.07813 156.188,1.82813 157,1.82813 C157.927,1.82813 158.633,2.1849 159.117,2.89844 C159.602,3.61198 159.844,4.64583 159.844,6 C159.844,7.26042 159.544,8.26823 158.945,9.02344 C158.346,9.77865 157.542,10.1563 156.531,10.1563 C156.26,10.1563 155.984,10.1302 155.703,10.0781 C155.422,10.026 155.13,9.94271 154.828,9.82813 M157,6.4375 C157.479,6.4375 157.862,6.27083 158.148,5.9375 C158.435,5.60417 158.578,5.14583 158.578,4.5625 C158.578,3.98958 158.435,3.53385 158.148,3.19531 C157.862,2.85677 157.479,2.6875 157,2.6875 C156.51,2.6875 156.122,2.85677 155.836,3.19531 C155.549,3.53385 155.406,3.98958 155.406,4.5625 C155.406,5.14583 155.549,5.60417 155.836,5.9375 C156.122,6.27083 156.51,6.4375 157,6.4375 M162.719,9.09375 L166.5,9.09375 L166.5,10 L161.422,10 L161.422,9.09375 C161.828,8.66667 162.388,8.09375 163.102,7.375 C163.815,6.65625 164.26,6.19271 164.438,5.98438 C164.781,5.58854 165.023,5.25521 165.164,4.98438 C165.305,4.71354 165.375,4.44792 165.375,4.1875 C165.375,3.76042 165.227,3.41406 164.93,3.14844 C164.633,2.88281 164.24,2.75 163.75,2.75 C163.417,2.75 163.06,2.8099 162.68,2.92969 C162.299,3.04948 161.896,3.22917 161.469,3.46875 L161.469,2.375 C161.906,2.19792 162.315,2.0625 162.695,1.96875 C163.076,1.875 163.422,1.82813 163.734,1.82813 C164.568,1.82813 165.232,2.03646 165.727,2.45313 C166.221,2.86979 166.469,3.42708 166.469,4.125 C166.469,4.45833 166.406,4.77083 166.281,5.0625 C166.156,5.35417 165.932,5.70313 165.609,6.10938 C165.516,6.21354 165.229,6.51302 164.75,7.00781 C164.271,7.5026 163.594,8.19792 162.719,9.09375 M171.094,2.6875 C170.531,2.6875 170.109,2.96354 169.828,3.51563 C169.547,4.06771 169.406,4.89583 169.406,6 C169.406,7.09375 169.547,7.91667 169.828,8.46875 C170.109,9.02083 170.531,9.29688 171.094,9.29688 C171.656,9.29688 172.078,9.02083 172.359,8.46875 C172.641,7.91667 172.781,7.09375 172.781,6 C172.781,4.89583 172.641,4.06771 172.359,3.51563 C172.078,2.96354 171.656,2.6875 171.094,2.6875 M171.094,1.82813 C171.99,1.82813 172.674,2.1849 173.148,2.89844 C173.622,3.61198 173.859,4.64583 173.859,6 C173.859,7.34375 173.622,8.3724 173.148,9.08594 C172.674,9.79948 171.99,10.1563 171.094,10.1563 C170.198,10.1563 169.51,9.79948 169.031,9.08594 C168.552,8.3724 168.313,7.34375 168.313,6 C168.313,4.64583 168.552,3.61198 169.031,2.89844 C169.51,2.1849 170.198,1.82813 171.094,1.82813 M179.047,5.67188 C179.568,5.78646 179.974,6.01823 180.266,6.36719 C180.557,6.71615 180.703,7.15104 180.703,7.67188 C180.703,8.46354 180.43,9.07552 179.883,9.50781 C179.336,9.9401 178.563,10.1563 177.563,10.1563 C177.219,10.1563 176.87,10.1224 176.516,10.0547 C176.161,9.98698 175.797,9.89063 175.422,9.76563 L175.422,8.70313 C175.724,8.88021 176.052,9.01563 176.406,9.10938 C176.76,9.20313 177.135,9.25 177.531,9.25 C178.208,9.25 178.724,9.11458 179.078,8.84375 C179.432,8.57292 179.609,8.18229 179.609,7.67188 C179.609,7.19271 179.445,6.82031 179.117,6.55469 C178.789,6.28906 178.328,6.15625 177.734,6.15625 L176.797,6.15625 L176.797,5.26563 L177.781,5.26563 C178.313,5.26563 178.719,5.15885 179,4.94531 C179.281,4.73177 179.422,4.42708 179.422,4.03125 C179.422,3.61458 179.276,3.29688 178.984,3.07813 C178.693,2.85938 178.276,2.75 177.734,2.75 C177.443,2.75 177.125,2.78125 176.781,2.84375 C176.438,2.90625 176.063,3.00521 175.656,3.14063 L175.656,2.17188 C176.073,2.05729 176.461,1.97135 176.82,1.91406 C177.18,1.85677 177.516,1.82813 177.828,1.82813 C178.651,1.82813 179.305,2.01563 179.789,2.39063 C180.273,2.76563 180.516,3.27604 180.516,3.92188 C180.516,4.35938 180.388,4.73177 180.133,5.03906 C179.878,5.34635 179.516,5.55729 179.047,5.67188 "/>
</g>

<g fill="none" stroke="#000000" stroke-opacity="1" stroke-width="1" stroke-linecap="square" stroke-linejoin="bevel" transform="matrix(1.99954,0,0,1.99954,820.061,22.9947)"
font-family="sans" font-size="11" font-weight="100" font-style="normal" 
>
</g>

<g fill="none" stroke="#000000" stroke-opacity="1" stroke-width="1" stroke-linecap="square" stroke-linejoin="bevel" transform="matrix(1.99954,0,0,1.99954,820.061,22.9947)"
font-family="Ubuntu" font-size="11" font-weight="400" font-style="normal" 
>
</g>

<g fill="none" stroke="#000000" stroke-opacity="1" stroke-width="1" stroke-linecap="square" stroke-linejoin="bevel" transform="matrix(1.99954,0,0,1.99954,-0.00799816,71.9835)"
font-family="Ubuntu" font-size="11" font-weight="400" font-style="normal" 
>
</g>

<g fill="none" stroke="#000000" stroke-opacity="1" stroke-width="1" stroke-linecap="square" stroke-linejoin="bevel" transform="matrix(1.99954,0,0,1.99954,-0.00799816,71.9835)"
font-family="Ubuntu" font-size="11" font-weight="400" font-style="normal" 
>
</g>

<g fill="none" stroke="#000000" stroke-opacity="1" stroke-width="1" stroke-linecap="square" stroke-linejoin="bevel" transform="matrix(1.99954,0,0,1.99954,-0.00799816,71.9835)"
font-family="Ubuntu" font-size="11" font-weight="400" font-style="normal" 
>
</g>

<g fill="none" stroke="#000000" stroke-opacity="1" stroke-width="1" stroke-linecap="square" stroke-linejoin="round" transform="matrix(1.99954,0,0,1.99954,-0.00799816,71.9835)"
font-family="Ubuntu" font-size="11" font-weight="400" font-style="normal" 
>
<ellipse cx="139.09" cy="-18" rx="138.586" ry="17.5"/>
</g>

<g fill="none" stroke="#000000" stroke-opacity="1" stroke-width="1" stroke-linecap="square" stroke-linejoin="bevel" transform="matrix(1.99954,0,0,1.99954,-0.00799816,71.9835)"
font-family="Ubuntu" font-size="11" font-weight="400" font-style="normal" 
>
</g>

<g fill="none" stroke="#000000" stroke-opacity="1" stroke-width="1" stroke-linecap="square" stroke-linejoin="bevel" transform="matrix(1.99954,0,0,1.99954,77.373,22.9947)"
font-family="Ubuntu" font-size="11" font-weight="400" font-style="normal" 
>
</g>

<g fill="none" stroke="#000000" stroke-opacity="1" stroke-width="1" stroke-linecap="square" stroke-linejoin="bevel" transform="matrix(1.99954,0,0,1.99954,77.373,22.9947)"
font-family="sans" font-size="11" font-weight="100" font-style="normal" 
>
</g>

<g fill="#000000" fill-opacity="1" stroke="#000000" stroke-opacity="1" stroke-width="1" stroke-linecap="square" stroke-linejoin="round" transform="matrix(1.99954,0,0,1.99954,77.373,22.9947)"
font-family="sans" font-size="11" font-weight="100" font-style="normal" 
>
<path vector-effect="none" fill-rule="nonzero" d="M2.79688,1.98438 L3.70313,1.98438 L0.90625,11.0156 L0,11.0156 L2.79688,1.98438 M9.73438,6.375 L9.73438,10 L8.75,10 L8.75,6.40625 C8.75,5.83333 8.64063,5.40625 8.42188,5.125 C8.20313,4.84375 7.86979,4.70313 7.42188,4.70313 C6.89063,4.70313 6.47135,4.8724 6.16406,5.21094 C5.85677,5.54948 5.70313,6.01042 5.70313,6.59375 L5.70313,10 L4.70313,10 L4.70313,1.64063 L5.70313,1.64063 L5.70313,4.92188 C5.93229,4.55729 6.20833,4.28646 6.53125,4.10938 C6.85417,3.93229 7.22396,3.84375 7.64063,3.84375 C8.32813,3.84375 8.84896,4.05729 9.20313,4.48438 C9.55729,4.91146 9.73438,5.54167 9.73438,6.375 M16.8594,6.75 L16.8594,7.23438 L12.3125,7.23438 C12.3542,7.91146 12.5573,8.42708 12.9219,8.78125 C13.2865,9.13542 13.7969,9.3125 14.4531,9.3125 C14.8385,9.3125 15.2083,9.26563 15.5625,9.17188 C15.9167,9.07813 16.2708,8.94271 16.625,8.76563 L16.625,9.6875 C16.2708,9.84375 15.9063,9.96094 15.5313,10.0391 C15.1563,10.1172 14.7813,10.1563 14.4063,10.1563 C13.4375,10.1563 12.6745,9.8776 12.1172,9.32031 C11.5599,8.76302 11.2813,8.00521 11.2813,7.04688 C11.2813,6.06771 11.5469,5.28906 12.0781,4.71094 C12.6094,4.13281 13.3281,3.84375 14.2344,3.84375 C15.0365,3.84375 15.6745,4.10417 16.1484,4.625 C16.6224,5.14583 16.8594,5.85417 16.8594,6.75 M15.8594,6.45313 C15.8594,5.91146 15.7109,5.47917 15.4141,5.15625 C15.1172,4.83333 14.724,4.67188 14.2344,4.67188 C13.6823,4.67188 13.2422,4.82813 12.9141,5.14063 C12.5859,5.45313 12.3958,5.89063 12.3438,6.45313 L15.8594,6.45313 M21.2031,6.96875 C20.4115,6.96875 19.862,7.0625 19.5547,7.25 C19.2474,7.4375 19.0938,7.75 19.0938,8.1875 C19.0938,8.53125 19.2083,8.80729 19.4375,9.01563 C19.6667,9.22396 19.9792,9.32813 20.375,9.32813 C20.9271,9.32813 21.3672,9.13281 21.6953,8.74219 C22.0234,8.35156 22.1875,7.83854 22.1875,7.20313 L22.1875,6.96875 L21.2031,6.96875 M23.1719,6.5625 L23.1719,10 L22.1875,10 L22.1875,9.09375 C21.9688,9.45833 21.6901,9.72656 21.3516,9.89844 C21.013,10.0703 20.599,10.1563 20.1094,10.1563 C19.4948,10.1563 19.0052,9.98438 18.6406,9.64063 C18.276,9.29688 18.0938,8.83333 18.0938,8.25 C18.0938,7.57292 18.3203,7.0625 18.7734,6.71875 C19.2266,6.375 19.9063,6.20313 20.8125,6.20313 L22.1875,6.20313 L22.1875,6.10938 C22.1875,5.65104 22.0391,5.29688 21.7422,5.04688 C21.4453,4.79688 21.026,4.67188 20.4844,4.67188 C20.1406,4.67188 19.8047,4.71354 19.4766,4.79688 C19.1484,4.88021 18.8333,5.00521 18.5313,5.17188 L18.5313,4.26563 C18.8958,4.11979 19.25,4.01302 19.5938,3.94531 C19.9375,3.8776 20.2656,3.84375 20.5781,3.84375 C21.4531,3.84375 22.1042,4.06771 22.5313,4.51563 C22.9583,4.96354 23.1719,5.64583 23.1719,6.5625 M29.1719,4.89063 L29.1719,1.64063 L30.1563,1.64063 L30.1563,10 L29.1719,10 L29.1719,9.09375 C28.9635,9.45833 28.7005,9.72656 28.3828,9.89844 C28.0651,10.0703 27.6823,10.1563 27.2344,10.1563 C26.5156,10.1563 25.9271,9.86719 25.4688,9.28906 C25.0104,8.71094 24.7813,7.94792 24.7813,7 C24.7813,6.05208 25.0104,5.28906 25.4688,4.71094 C25.9271,4.13281 26.5156,3.84375 27.2344,3.84375 C27.6823,3.84375 28.0651,3.92969 28.3828,4.10156 C28.7005,4.27344 28.9635,4.53646 29.1719,4.89063 M25.7969,7 C25.7969,7.72917 25.9479,8.29948 26.25,8.71094 C26.5521,9.1224 26.9635,9.32813 27.4844,9.32813 C28.0052,9.32813 28.4167,9.1224 28.7188,8.71094 C29.0208,8.29948 29.1719,7.72917 29.1719,7 C29.1719,6.27083 29.0208,5.70052 28.7188,5.28906 C28.4167,4.8776 28.0052,4.67188 27.4844,4.67188 C26.9635,4.67188 26.5521,4.8776 26.25,5.28906 C25.9479,5.70052 25.7969,6.27083 25.7969,7 M36.75,11.8281 L36.75,12.5938 L31.0313,12.5938 L31.0313,11.8281 L36.75,11.8281 M42.6719,6.375 L42.6719,10 L41.6875,10 L41.6875,6.40625 C41.6875,5.83333 41.5781,5.40625 41.3594,5.125 C41.1406,4.84375 40.8073,4.70313 40.3594,4.70313 C39.8281,4.70313 39.4089,4.8724 39.1016,5.21094 C38.7943,5.54948 38.6406,6.01042 38.6406,6.59375 L38.6406,10 L37.6406,10 L37.6406,3.98438 L38.6406,3.98438 L38.6406,4.92188 C38.8698,4.55729 39.1458,4.28646 39.4688,4.10938 C39.7917,3.93229 40.1615,3.84375 40.5781,3.84375 C41.2656,3.84375 41.7865,4.05729 42.1406,4.48438 C42.4948,4.91146 42.6719,5.54167 42.6719,6.375 M46.9844,4.67188 C46.4531,4.67188 46.0339,4.88021 45.7266,5.29688 C45.4193,5.71354 45.2656,6.28125 45.2656,7 C45.2656,7.71875 45.4167,8.28385 45.7188,8.69531 C46.0208,9.10677 46.4427,9.3125 46.9844,9.3125 C47.5052,9.3125 47.9193,9.10677 48.2266,8.69531 C48.5339,8.28385 48.6875,7.71875 48.6875,7 C48.6875,6.28125 48.5339,5.71354 48.2266,5.29688 C47.9193,4.88021 47.5052,4.67188 46.9844,4.67188 M46.9844,3.84375 C47.8385,3.84375 48.5104,4.1224 49,4.67969 C49.4896,5.23698 49.7344,6.01042 49.7344,7 C49.7344,7.97917 49.4896,8.75 49,9.3125 C48.5104,9.875 47.8385,10.1563 46.9844,10.1563 C46.1198,10.1563 45.4427,9.875 44.9531,9.3125 C44.4635,8.75 44.2188,7.97917 44.2188,7 C44.2188,6.01042 44.4635,5.23698 44.9531,4.67969 C45.4427,4.1224 46.1198,3.84375 46.9844,3.84375 M55.3281,4.89063 L55.3281,1.64063 L56.3125,1.64063 L56.3125,10 L55.3281,10 L55.3281,9.09375 C55.1198,9.45833 54.8568,9.72656 54.5391,9.89844 C54.2214,10.0703 53.8385,10.1563 53.3906,10.1563 C52.6719,10.1563 52.0833,9.86719 51.625,9.28906 C51.1667,8.71094 50.9375,7.94792 50.9375,7 C50.9375,6.05208 51.1667,5.28906 51.625,4.71094 C52.0833,4.13281 52.6719,3.84375 53.3906,3.84375 C53.8385,3.84375 54.2214,3.92969 54.5391,4.10156 C54.8568,4.27344 55.1198,4.53646 55.3281,4.89063 M51.9531,7 C51.9531,7.72917 52.1042,8.29948 52.4063,8.71094 C52.7083,9.1224 53.1198,9.32813 53.6406,9.32813 C54.1615,9.32813 54.5729,9.1224 54.875,8.71094 C55.1771,8.29948 55.3281,7.72917 55.3281,7 C55.3281,6.27083 55.1771,5.70052 54.875,5.28906 C54.5729,4.8776 54.1615,4.67188 53.6406,4.67188 C53.1198,4.67188 52.7083,4.8776 52.4063,5.28906 C52.1042,5.70052 51.9531,6.27083 51.9531,7 M63.4844,6.75 L63.4844,7.23438 L58.9375,7.23438 C58.9792,7.91146 59.1823,8.42708 59.5469,8.78125 C59.9115,9.13542 60.4219,9.3125 61.0781,9.3125 C61.4635,9.3125 61.8333,9.26563 62.1875,9.17188 C62.5417,9.07813 62.8958,8.94271 63.25,8.76563 L63.25,9.6875 C62.8958,9.84375 62.5313,9.96094 62.1563,10.0391 C61.7813,10.1172 61.4063,10.1563 61.0313,10.1563 C60.0625,10.1563 59.2995,9.8776 58.7422,9.32031 C58.1849,8.76302 57.9063,8.00521 57.9063,7.04688 C57.9063,6.06771 58.1719,5.28906 58.7031,4.71094 C59.2344,4.13281 59.9531,3.84375 60.8594,3.84375 C61.6615,3.84375 62.2995,4.10417 62.7734,4.625 C63.2474,5.14583 63.4844,5.85417 63.4844,6.75 M62.4844,6.45313 C62.4844,5.91146 62.3359,5.47917 62.0391,5.15625 C61.7422,4.83333 61.349,4.67188 60.8594,4.67188 C60.3073,4.67188 59.8672,4.82813 59.5391,5.14063 C59.2109,5.45313 59.0208,5.89063 58.9688,6.45313 L62.4844,6.45313 M69.6719,11.8281 L69.6719,12.5938 L63.9531,12.5938 L63.9531,11.8281 L69.6719,11.8281 M70.9219,9.09375 L72.7031,9.09375 L72.7031,2.96875 L70.7656,3.35938 L70.7656,2.375 L72.6875,1.98438 L73.7813,1.98438 L73.7813,9.09375 L75.5469,9.09375 L75.5469,10 L70.9219,10 L70.9219,9.09375 M80.0469,2.6875 C79.4844,2.6875 79.0625,2.96354 78.7813,3.51563 C78.5,4.06771 78.3594,4.89583 78.3594,6 C78.3594,7.09375 78.5,7.91667 78.7813,8.46875 C79.0625,9.02083 79.4844,9.29688 80.0469,9.29688 C80.6094,9.29688 81.0313,9.02083 81.3125,8.46875 C81.5938,7.91667 81.7344,7.09375 81.7344,6 C81.7344,4.89583 81.5938,4.06771 81.3125,3.51563 C81.0313,2.96354 80.6094,2.6875 80.0469,2.6875 M80.0469,1.82813 C80.9427,1.82813 81.6276,2.1849 82.1016,2.89844 C82.5755,3.61198 82.8125,4.64583 82.8125,6 C82.8125,7.34375 82.5755,8.3724 82.1016,9.08594 C81.6276,9.79948 80.9427,10.1563 80.0469,10.1563 C79.151,10.1563 78.4635,9.79948 77.9844,9.08594 C77.5052,8.3724 77.2656,7.34375 77.2656,6 C77.2656,4.64583 77.5052,3.61198 77.9844,2.89844 C78.4635,2.1849 79.151,1.82813 80.0469,1.82813 M85.6406,9.09375 L89.4219,9.09375 L89.4219,10 L84.3438,10 L84.3438,9.09375 C84.75,8.66667 85.3099,8.09375 86.0234,7.375 C86.737,6.65625 87.1823,6.19271 87.3594,5.98438 C87.7031,5.58854 87.9453,5.25521 88.0859,4.98438 C88.2266,4.71354 88.2969,4.44792 88.2969,4.1875 C88.2969,3.76042 88.1484,3.41406 87.8516,3.14844 C87.5547,2.88281 87.1615,2.75 86.6719,2.75 C86.3385,2.75 85.9818,2.8099 85.6016,2.92969 C85.2214,3.04948 84.8177,3.22917 84.3906,3.46875 L84.3906,2.375 C84.8281,2.19792 85.237,2.0625 85.6172,1.96875 C85.9974,1.875 86.3438,1.82813 86.6563,1.82813 C87.4896,1.82813 88.1536,2.03646 88.6484,2.45313 C89.1432,2.86979 89.3906,3.42708 89.3906,4.125 C89.3906,4.45833 89.3281,4.77083 89.2031,5.0625 C89.0781,5.35417 88.8542,5.70313 88.5313,6.10938 C88.4375,6.21354 88.151,6.51302 87.6719,7.00781 C87.1927,7.5026 86.5156,8.19792 85.6406,9.09375 M94.9844,5.67188 C95.5052,5.78646 95.9115,6.01823 96.2031,6.36719 C96.4948,6.71615 96.6406,7.15104 96.6406,7.67188 C96.6406,8.46354 96.3672,9.07552 95.8203,9.50781 C95.2734,9.9401 94.5,10.1563 93.5,10.1563 C93.1563,10.1563 92.8073,10.1224 92.4531,10.0547 C92.099,9.98698 91.7344,9.89063 91.3594,9.76563 L91.3594,8.70313 C91.6615,8.88021 91.9896,9.01563 92.3438,9.10938 C92.6979,9.20313 93.0729,9.25 93.4688,9.25 C94.1458,9.25 94.6615,9.11458 95.0156,8.84375 C95.3698,8.57292 95.5469,8.18229 95.5469,7.67188 C95.5469,7.19271 95.3828,6.82031 95.0547,6.55469 C94.7266,6.28906 94.2656,6.15625 93.6719,6.15625 L92.7344,6.15625 L92.7344,5.26563 L93.7188,5.26563 C94.25,5.26563 94.6563,5.15885 94.9375,4.94531 C95.2188,4.73177 95.3594,4.42708 95.3594,4.03125 C95.3594,3.61458 95.2135,3.29688 94.9219,3.07813 C94.6302,2.85938 94.2135,2.75 93.6719,2.75 C93.3802,2.75 93.0625,2.78125 92.7188,2.84375 C92.375,2.90625 92,3.00521 91.5938,3.14063 L91.5938,2.17188 C92.0104,2.05729 92.3984,1.97135 92.7578,1.91406 C93.1172,1.85677 93.4531,1.82813 93.7656,1.82813 C94.5885,1.82813 95.2422,2.01563 95.7266,2.39063 C96.2109,2.76563 96.4531,3.27604 96.4531,3.92188 C96.4531,4.35938 96.3255,4.73177 96.0703,5.03906 C95.8151,5.34635 95.4531,5.55729 94.9844,5.67188 M98.4063,1.98438 L103.563,1.98438 L103.563,2.4375 L100.641,10 L99.5156,10 L102.25,2.89063 L98.4063,2.89063 L98.4063,1.98438 M110.094,11.8281 L110.094,12.5938 L104.375,12.5938 L104.375,11.8281 L110.094,11.8281 M111.344,9.09375 L113.125,9.09375 L113.125,2.96875 L111.188,3.35938 L111.188,2.375 L113.109,1.98438 L114.203,1.98438 L114.203,9.09375 L115.969,9.09375 L115.969,10 L111.344,10 L111.344,9.09375 M118.156,1.98438 L122.422,1.98438 L122.422,2.89063 L119.156,2.89063 L119.156,4.85938 C119.313,4.80729 119.469,4.76823 119.625,4.74219 C119.781,4.71615 119.938,4.70313 120.094,4.70313 C120.99,4.70313 121.698,4.94792 122.219,5.4375 C122.74,5.92708 123,6.58854 123,7.42188 C123,8.28646 122.732,8.95833 122.195,9.4375 C121.659,9.91667 120.901,10.1563 119.922,10.1563 C119.589,10.1563 119.247,10.1276 118.898,10.0703 C118.549,10.013 118.188,9.92708 117.813,9.8125 L117.813,8.71875 C118.135,8.89583 118.469,9.02865 118.813,9.11719 C119.156,9.20573 119.521,9.25 119.906,9.25 C120.531,9.25 121.023,9.08594 121.383,8.75781 C121.742,8.42969 121.922,7.98438 121.922,7.42188 C121.922,6.86979 121.742,6.42969 121.383,6.10156 C121.023,5.77344 120.531,5.60938 119.906,5.60938 C119.615,5.60938 119.326,5.64323 119.039,5.71094 C118.753,5.77865 118.458,5.88021 118.156,6.01563 L118.156,1.98438 M125.313,9.09375 L127.094,9.09375 L127.094,2.96875 L125.156,3.35938 L125.156,2.375 L127.078,1.98438 L128.172,1.98438 L128.172,9.09375 L129.938,9.09375 L129.938,10 L125.313,10 L125.313,9.09375 M134.438,6.1875 C133.917,6.1875 133.51,6.32552 133.219,6.60156 C132.927,6.8776 132.781,7.26042 132.781,7.75 C132.781,8.22917 132.927,8.60677 133.219,8.88281 C133.51,9.15885 133.917,9.29688 134.438,9.29688 C134.948,9.29688 135.352,9.15885 135.648,8.88281 C135.945,8.60677 136.094,8.22917 136.094,7.75 C136.094,7.26042 135.948,6.8776 135.656,6.60156 C135.365,6.32552 134.958,6.1875 134.438,6.1875 M133.344,5.73438 C132.885,5.61979 132.526,5.40365 132.266,5.08594 C132.005,4.76823 131.875,4.38021 131.875,3.92188 C131.875,3.27604 132.102,2.76563 132.555,2.39063 C133.008,2.01563 133.635,1.82813 134.438,1.82813 C135.229,1.82813 135.854,2.01563 136.313,2.39063 C136.771,2.76563 137,3.27604 137,3.92188 C137,4.38021 136.87,4.76823 136.609,5.08594 C136.349,5.40365 135.99,5.61979 135.531,5.73438 C136.052,5.84896 136.458,6.08333 136.75,6.4375 C137.042,6.79167 137.188,7.22917 137.188,7.75 C137.188,8.52083 136.951,9.11458 136.477,9.53125 C136.003,9.94792 135.323,10.1563 134.438,10.1563 C133.552,10.1563 132.872,9.94792 132.398,9.53125 C131.924,9.11458 131.688,8.52083 131.688,7.75 C131.688,7.22917 131.833,6.79167 132.125,6.4375 C132.417,6.08333 132.823,5.84896 133.344,5.73438 M132.953,4.01563 C132.953,4.43229 133.083,4.75781 133.344,4.99219 C133.604,5.22656 133.969,5.34375 134.438,5.34375 C134.896,5.34375 135.258,5.22656 135.523,4.99219 C135.789,4.75781 135.922,4.43229 135.922,4.01563 C135.922,3.59896 135.789,3.27344 135.523,3.03906 C135.258,2.80469 134.896,2.6875 134.438,2.6875 C133.969,2.6875 133.604,2.80469 133.344,3.03906 C133.083,3.27344 132.953,3.59896 132.953,4.01563 M139.281,9.09375 L141.063,9.09375 L141.063,2.96875 L139.125,3.35938 L139.125,2.375 L141.047,1.98438 L142.141,1.98438 L142.141,9.09375 L143.906,9.09375 L143.906,10 L139.281,10 L139.281,9.09375 M146.266,9.09375 L148.047,9.09375 L148.047,2.96875 L146.109,3.35938 L146.109,2.375 L148.031,1.98438 L149.125,1.98438 L149.125,9.09375 L150.891,9.09375 L150.891,10 L146.266,10 L146.266,9.09375 M153.25,9.09375 L155.031,9.09375 L155.031,2.96875 L153.094,3.35938 L153.094,2.375 L155.016,1.98438 L156.109,1.98438 L156.109,9.09375 L157.875,9.09375 L157.875,10 L153.25,10 L153.25,9.09375 M163.031,2.92188 L160.297,7.20313 L163.031,7.20313 L163.031,2.92188 M162.75,1.98438 L164.109,1.98438 L164.109,7.20313 L165.25,7.20313 L165.25,8.10938 L164.109,8.10938 L164.109,10 L163.031,10 L163.031,8.10938 L159.406,8.10938 L159.406,7.0625 L162.75,1.98438 M167.219,9.09375 L169,9.09375 L169,2.96875 L167.063,3.35938 L167.063,2.375 L168.984,1.98438 L170.078,1.98438 L170.078,9.09375 L171.844,9.09375 L171.844,10 L167.219,10 L167.219,9.09375 M176.469,5.5625 C175.99,5.5625 175.607,5.72917 175.32,6.0625 C175.034,6.39583 174.891,6.84896 174.891,7.42188 C174.891,8.00521 175.034,8.46354 175.32,8.79688 C175.607,9.13021 175.99,9.29688 176.469,9.29688 C176.958,9.29688 177.346,9.13021 177.633,8.79688 C177.919,8.46354 178.063,8.00521 178.063,7.42188 C178.063,6.84896 177.919,6.39583 177.633,6.0625 C177.346,5.72917 176.958,5.5625 176.469,5.5625 M178.625,2.15625 L178.625,3.14063 C178.354,3.01563 178.081,2.91927 177.805,2.85156 C177.529,2.78385 177.255,2.75 176.984,2.75 C176.266,2.75 175.716,2.99219 175.336,3.47656 C174.956,3.96094 174.74,4.69271 174.688,5.67188 C174.906,5.35938 175.174,5.11979 175.492,4.95313 C175.81,4.78646 176.161,4.70313 176.547,4.70313 C177.349,4.70313 177.984,4.94792 178.453,5.4375 C178.922,5.92708 179.156,6.58854 179.156,7.42188 C179.156,8.24479 178.911,8.90625 178.422,9.40625 C177.932,9.90625 177.281,10.1563 176.469,10.1563 C175.542,10.1563 174.833,9.79948 174.344,9.08594 C173.854,8.3724 173.609,7.34375 173.609,6 C173.609,4.72917 173.911,3.71615 174.516,2.96094 C175.12,2.20573 175.927,1.82813 176.938,1.82813 C177.208,1.82813 177.482,1.85677 177.758,1.91406 C178.034,1.97135 178.323,2.05208 178.625,2.15625 M181.938,9.09375 L185.719,9.09375 L185.719,10 L180.641,10 L180.641,9.09375 C181.047,8.66667 181.607,8.09375 182.32,7.375 C183.034,6.65625 183.479,6.19271 183.656,5.98438 C184,5.58854 184.242,5.25521 184.383,4.98438 C184.523,4.71354 184.594,4.44792 184.594,4.1875 C184.594,3.76042 184.445,3.41406 184.148,3.14844 C183.852,2.88281 183.458,2.75 182.969,2.75 C182.635,2.75 182.279,2.8099 181.898,2.92969 C181.518,3.04948 181.115,3.22917 180.688,3.46875 L180.688,2.375 C181.125,2.19792 181.534,2.0625 181.914,1.96875 C182.294,1.875 182.641,1.82813 182.953,1.82813 C183.786,1.82813 184.451,2.03646 184.945,2.45313 C185.44,2.86979 185.688,3.42708 185.688,4.125 C185.688,4.45833 185.625,4.77083 185.5,5.0625 C185.375,5.35417 185.151,5.70313 184.828,6.10938 C184.734,6.21354 184.448,6.51302 183.969,7.00781 C183.49,7.5026 182.813,8.19792 181.938,9.09375 M188.172,9.09375 L189.953,9.09375 L189.953,2.96875 L188.016,3.35938 L188.016,2.375 L189.938,1.98438 L191.031,1.98438 L191.031,9.09375 L192.797,9.09375 L192.797,10 L188.172,10 L188.172,9.09375 M197.297,6.1875 C196.776,6.1875 196.37,6.32552 196.078,6.60156 C195.786,6.8776 195.641,7.26042 195.641,7.75 C195.641,8.22917 195.786,8.60677 196.078,8.88281 C196.37,9.15885 196.776,9.29688 197.297,9.29688 C197.807,9.29688 198.211,9.15885 198.508,8.88281 C198.805,8.60677 198.953,8.22917 198.953,7.75 C198.953,7.26042 198.807,6.8776 198.516,6.60156 C198.224,6.32552 197.818,6.1875 197.297,6.1875 M196.203,5.73438 C195.745,5.61979 195.385,5.40365 195.125,5.08594 C194.865,4.76823 194.734,4.38021 194.734,3.92188 C194.734,3.27604 194.961,2.76563 195.414,2.39063 C195.867,2.01563 196.495,1.82813 197.297,1.82813 C198.089,1.82813 198.714,2.01563 199.172,2.39063 C199.63,2.76563 199.859,3.27604 199.859,3.92188 C199.859,4.38021 199.729,4.76823 199.469,5.08594 C199.208,5.40365 198.849,5.61979 198.391,5.73438 C198.911,5.84896 199.318,6.08333 199.609,6.4375 C199.901,6.79167 200.047,7.22917 200.047,7.75 C200.047,8.52083 199.81,9.11458 199.336,9.53125 C198.862,9.94792 198.182,10.1563 197.297,10.1563 C196.411,10.1563 195.732,9.94792 195.258,9.53125 C194.784,9.11458 194.547,8.52083 194.547,7.75 C194.547,7.22917 194.693,6.79167 194.984,6.4375 C195.276,6.08333 195.682,5.84896 196.203,5.73438 M195.813,4.01563 C195.813,4.43229 195.943,4.75781 196.203,4.99219 C196.464,5.22656 196.828,5.34375 197.297,5.34375 C197.755,5.34375 198.117,5.22656 198.383,4.99219 C198.648,4.75781 198.781,4.43229 198.781,4.01563 C198.781,3.59896 198.648,3.27344 198.383,3.03906 C198.117,2.80469 197.755,2.6875 197.297,2.6875 C196.828,2.6875 196.464,2.80469 196.203,3.03906 C195.943,3.27344 195.813,3.59896 195.813,4.01563 "/>
</g>

<g fill="none" stroke="#000000" stroke-opacity="1" stroke-width="1" stroke-linecap="square" stroke-linejoin="bevel" transform="matrix(1.99954,0,0,1.99954,77.373,22.9947)"
font-family="sans" font-size="11" font-weight="100" font-style="normal" 
>
</g>

<g fill="none" stroke="#000000" stroke-opacity="1" stroke-width="1" stroke-linecap="square" stroke-linejoin="bevel" transform="matrix(1.99954,0,0,1.99954,77.373,22.9947)"
font-family="Ubuntu" font-size="11" font-weight="400" font-style="normal" 
>
</g>

<g fill="none" stroke="#000000" stroke-opacity="1" stroke-width="1" stroke-linecap="square" stroke-linejoin="bevel" transform="matrix(1.99954,0,0,1.99954,-0.00799816,71.9835)"
font-family="Ubuntu" font-size="11" font-weight="400" font-style="normal" 
>
</g>

<g fill="none" stroke="#000000" stroke-opacity="1" stroke-width="1" stroke-linecap="square" stroke-linejoin="bevel" transform="matrix(1.99954,0,0,1.99954,-0.00799816,71.9835)"
font-family="Ubuntu" font-size="11" font-weight="400" font-style="normal" 
>
</g>

<g fill="none" stroke="#000000" stroke-opacity="1" stroke-width="1" stroke-linecap="square" stroke-linejoin="bevel" transform="matrix(1.99954,0,0,1.99954,-0.00799816,71.9835)"
font-family="Ubuntu" font-size="11" font-weight="400" font-style="normal" 
>
</g>

<g fill="none" stroke="#000000" stroke-opacity="1" stroke-width="1" stroke-linecap="square" stroke-linejoin="round" transform="matrix(1.99954,0,0,1.99954,-0.00799816,71.9835)"
font-family="Ubuntu" font-size="11" font-weight="400" font-style="normal" 
>
<path vector-effect="none" fill-rule="evenodd" d="M278.18,-18 C306.24,-18 335.75,-18 363.74,-18 "/>
</g>

<g fill="none" stroke="#000000" stroke-opacity="1" stroke-width="1" stroke-linecap="square" stroke-linejoin="bevel" transform="matrix(1.99954,0,0,1.99954,-0.00799816,71.9835)"
font-family="Ubuntu" font-size="11" font-weight="400" font-style="normal" 
>
</g>

<g fill="none" stroke="#000000" stroke-opacity="1" stroke-width="1" stroke-linecap="square" stroke-linejoin="bevel" transform="matrix(1.99954,0,0,1.99954,572.08,7.99816)"
font-family="Ubuntu" font-size="11" font-weight="400" font-style="normal" 
>
</g>

<g fill="none" stroke="#000000" stroke-opacity="1" stroke-width="1" stroke-linecap="square" stroke-linejoin="bevel" transform="matrix(1.99954,0,0,1.99954,572.08,7.99816)"
font-family="sans" font-size="11" font-weight="100" font-style="normal" 
>
</g>

<g fill="#000000" fill-opacity="1" stroke="#000000" stroke-opacity="1" stroke-width="1" stroke-linecap="square" stroke-linejoin="round" transform="matrix(1.99954,0,0,1.99954,572.08,7.99816)"
font-family="sans" font-size="11" font-weight="100" font-style="normal" 
>
<path vector-effect="none" fill-rule="nonzero" d="M2.79688,1.98438 L3.70313,1.98438 L0.90625,11.0156 L0,11.0156 L2.79688,1.98438 M9.73438,6.375 L9.73438,10 L8.75,10 L8.75,6.40625 C8.75,5.83333 8.64063,5.40625 8.42188,5.125 C8.20313,4.84375 7.86979,4.70313 7.42188,4.70313 C6.89063,4.70313 6.47135,4.8724 6.16406,5.21094 C5.85677,5.54948 5.70313,6.01042 5.70313,6.59375 L5.70313,10 L4.70313,10 L4.70313,1.64063 L5.70313,1.64063 L5.70313,4.92188 C5.93229,4.55729 6.20833,4.28646 6.53125,4.10938 C6.85417,3.93229 7.22396,3.84375 7.64063,3.84375 C8.32813,3.84375 8.84896,4.05729 9.20313,4.48438 C9.55729,4.91146 9.73438,5.54167 9.73438,6.375 M16.8594,6.75 L16.8594,7.23438 L12.3125,7.23438 C12.3542,7.91146 12.5573,8.42708 12.9219,8.78125 C13.2865,9.13542 13.7969,9.3125 14.4531,9.3125 C14.8385,9.3125 15.2083,9.26563 15.5625,9.17188 C15.9167,9.07813 16.2708,8.94271 16.625,8.76563 L16.625,9.6875 C16.2708,9.84375 15.9063,9.96094 15.5313,10.0391 C15.1563,10.1172 14.7813,10.1563 14.4063,10.1563 C13.4375,10.1563 12.6745,9.8776 12.1172,9.32031 C11.5599,8.76302 11.2813,8.00521 11.2813,7.04688 C11.2813,6.06771 11.5469,5.28906 12.0781,4.71094 C12.6094,4.13281 13.3281,3.84375 14.2344,3.84375 C15.0365,3.84375 15.6745,4.10417 16.1484,4.625 C16.6224,5.14583 16.8594,5.85417 16.8594,6.75 M15.8594,6.45313 C15.8594,5.91146 15.7109,5.47917 15.4141,5.15625 C15.1172,4.83333 14.724,4.67188 14.2344,4.67188 C13.6823,4.67188 13.2422,4.82813 12.9141,5.14063 C12.5859,5.45313 12.3958,5.89063 12.3438,6.45313 L15.8594,6.45313 M21.2031,6.96875 C20.4115,6.96875 19.862,7.0625 19.5547,7.25 C19.2474,7.4375 19.0938,7.75 19.0938,8.1875 C19.0938,8.53125 19.2083,8.80729 19.4375,9.01563 C19.6667,9.22396 19.9792,9.32813 20.375,9.32813 C20.9271,9.32813 21.3672,9.13281 21.6953,8.74219 C22.0234,8.35156 22.1875,7.83854 22.1875,7.20313 L22.1875,6.96875 L21.2031,6.96875 M23.1719,6.5625 L23.1719,10 L22.1875,10 L22.1875,9.09375 C21.9688,9.45833 21.6901,9.72656 21.3516,9.89844 C21.013,10.0703 20.599,10.1563 20.1094,10.1563 C19.4948,10.1563 19.0052,9.98438 18.6406,9.64063 C18.276,9.29688 18.0938,8.83333 18.0938,8.25 C18.0938,7.57292 18.3203,7.0625 18.7734,6.71875 C19.2266,6.375 19.9063,6.20313 20.8125,6.20313 L22.1875,6.20313 L22.1875,6.10938 C22.1875,5.65104 22.0391,5.29688 21.7422,5.04688 C21.4453,4.79688 21.026,4.67188 20.4844,4.67188 C20.1406,4.67188 19.8047,4.71354 19.4766,4.79688 C19.1484,4.88021 18.8333,5.00521 18.5313,5.17188 L18.5313,4.26563 C18.8958,4.11979 19.25,4.01302 19.5938,3.94531 C19.9375,3.8776 20.2656,3.84375 20.5781,3.84375 C21.4531,3.84375 22.1042,4.06771 22.5313,4.51563 C22.9583,4.96354 23.1719,5.64583 23.1719,6.5625 M29.1719,4.89063 L29.1719,1.64063 L30.1563,1.64063 L30.1563,10 L29.1719,10 L29.1719,9.09375 C28.9635,9.45833 28.7005,9.72656 28.3828,9.89844 C28.0651,10.0703 27.6823,10.1563 27.2344,10.1563 C26.5156,10.1563 25.9271,9.86719 25.4688,9.28906 C25.0104,8.71094 24.7813,7.94792 24.7813,7 C24.7813,6.05208 25.0104,5.28906 25.4688,4.71094 C25.9271,4.13281 26.5156,3.84375 27.2344,3.84375 C27.6823,3.84375 28.0651,3.92969 28.3828,4.10156 C28.7005,4.27344 28.9635,4.53646 29.1719,4.89063 M25.7969,7 C25.7969,7.72917 25.9479,8.29948 26.25,8.71094 C26.5521,9.1224 26.9635,9.32813 27.4844,9.32813 C28.0052,9.32813 28.4167,9.1224 28.7188,8.71094 C29.0208,8.29948 29.1719,7.72917 29.1719,7 C29.1719,6.27083 29.0208,5.70052 28.7188,5.28906 C28.4167,4.8776 28.0052,4.67188 27.4844,4.67188 C26.9635,4.67188 26.5521,4.8776 26.25,5.28906 C25.9479,5.70052 25.7969,6.27083 25.7969,7 M36.75,11.8281 L36.75,12.5938 L31.0313,12.5938 L31.0313,11.8281 L36.75,11.8281 M38.6406,9.09375 L38.6406,12.2813 L37.6406,12.2813 L37.6406,3.98438 L38.6406,3.98438 L38.6406,4.89063 C38.8385,4.53646 39.0964,4.27344 39.4141,4.10156 C39.7318,3.92969 40.1146,3.84375 40.5625,3.84375 C41.2917,3.84375 41.8828,4.13281 42.3359,4.71094 C42.7891,5.28906 43.0156,6.05208 43.0156,7 C43.0156,7.94792 42.7891,8.71094 42.3359,9.28906 C41.8828,9.86719 41.2917,10.1563 40.5625,10.1563 C40.1146,10.1563 39.7318,10.0703 39.4141,9.89844 C39.0964,9.72656 38.8385,9.45833 38.6406,9.09375 M42,7 C42,6.27083 41.849,5.70052 41.5469,5.28906 C41.2448,4.8776 40.8333,4.67188 40.3125,4.67188 C39.7917,4.67188 39.3828,4.8776 39.0859,5.28906 C38.7891,5.70052 38.6406,6.27083 38.6406,7 C38.6406,7.72917 38.7891,8.29948 39.0859,8.71094 C39.3828,9.1224 39.7917,9.32813 40.3125,9.32813 C40.8333,9.32813 41.2448,9.1224 41.5469,8.71094 C41.849,8.29948 42,7.72917 42,7 M46.9844,4.67188 C46.4531,4.67188 46.0339,4.88021 45.7266,5.29688 C45.4193,5.71354 45.2656,6.28125 45.2656,7 C45.2656,7.71875 45.4167,8.28385 45.7188,8.69531 C46.0208,9.10677 46.4427,9.3125 46.9844,9.3125 C47.5052,9.3125 47.9193,9.10677 48.2266,8.69531 C48.5339,8.28385 48.6875,7.71875 48.6875,7 C48.6875,6.28125 48.5339,5.71354 48.2266,5.29688 C47.9193,4.88021 47.5052,4.67188 46.9844,4.67188 M46.9844,3.84375 C47.8385,3.84375 48.5104,4.1224 49,4.67969 C49.4896,5.23698 49.7344,6.01042 49.7344,7 C49.7344,7.97917 49.4896,8.75 49,9.3125 C48.5104,9.875 47.8385,10.1563 46.9844,10.1563 C46.1198,10.1563 45.4427,9.875 44.9531,9.3125 C44.4635,8.75 44.2188,7.97917 44.2188,7 C44.2188,6.01042 44.4635,5.23698 44.9531,4.67969 C45.4427,4.1224 46.1198,3.84375 46.9844,3.84375 M55.2031,4.15625 L55.2031,5.09375 C54.9219,4.94792 54.6302,4.84115 54.3281,4.77344 C54.026,4.70573 53.7135,4.67188 53.3906,4.67188 C52.901,4.67188 52.5339,4.7474 52.2891,4.89844 C52.0443,5.04948 51.9219,5.27083 51.9219,5.5625 C51.9219,5.79167 52.0104,5.97135 52.1875,6.10156 C52.3646,6.23177 52.7188,6.35938 53.25,6.48438 L53.5781,6.5625 C54.2865,6.70833 54.7865,6.91927 55.0781,7.19531 C55.3698,7.47135 55.5156,7.85417 55.5156,8.34375 C55.5156,8.89583 55.2969,9.33594 54.8594,9.66406 C54.4219,9.99219 53.8125,10.1563 53.0313,10.1563 C52.7083,10.1563 52.3724,10.125 52.0234,10.0625 C51.6745,10 51.3073,9.90625 50.9219,9.78125 L50.9219,8.76563 C51.2865,8.95313 51.6458,9.09375 52,9.1875 C52.3542,9.28125 52.7083,9.32813 53.0625,9.32813 C53.5208,9.32813 53.875,9.2474 54.125,9.08594 C54.375,8.92448 54.5,8.70313 54.5,8.42188 C54.5,8.15104 54.4115,7.94271 54.2344,7.79688 C54.0573,7.65104 53.6615,7.51563 53.0469,7.39063 L52.7031,7.29688 C52.0885,7.17188 51.6458,6.97656 51.375,6.71094 C51.1042,6.44531 50.9688,6.07813 50.9688,5.60938 C50.9688,5.04688 51.1693,4.61198 51.5703,4.30469 C51.9714,3.9974 52.5417,3.84375 53.2813,3.84375 C53.6458,3.84375 53.9896,3.86979 54.3125,3.92188 C54.6354,3.97396 54.9323,4.05208 55.2031,4.15625 M57.0781,3.98438 L58.0781,3.98438 L58.0781,10 L57.0781,10 L57.0781,3.98438 M57.0781,1.64063 L58.0781,1.64063 L58.0781,2.89063 L57.0781,2.89063 L57.0781,1.64063 M61.1094,2.28125 L61.1094,3.98438 L63.1406,3.98438 L63.1406,4.75 L61.1094,4.75 L61.1094,8.01563 C61.1094,8.50521 61.1771,8.82031 61.3125,8.96094 C61.4479,9.10156 61.7188,9.17188 62.125,9.17188 L63.1406,9.17188 L63.1406,10 L62.125,10 C61.3646,10 60.8385,9.85677 60.5469,9.57031 C60.2552,9.28385 60.1094,8.76563 60.1094,8.01563 L60.1094,4.75 L59.3906,4.75 L59.3906,3.98438 L60.1094,3.98438 L60.1094,2.28125 L61.1094,2.28125 M64.4375,3.98438 L65.4375,3.98438 L65.4375,10 L64.4375,10 L64.4375,3.98438 M64.4375,1.64063 L65.4375,1.64063 L65.4375,2.89063 L64.4375,2.89063 L64.4375,1.64063 M69.8281,4.67188 C69.2969,4.67188 68.8776,4.88021 68.5703,5.29688 C68.263,5.71354 68.1094,6.28125 68.1094,7 C68.1094,7.71875 68.2604,8.28385 68.5625,8.69531 C68.8646,9.10677 69.2865,9.3125 69.8281,9.3125 C70.349,9.3125 70.763,9.10677 71.0703,8.69531 C71.3776,8.28385 71.5313,7.71875 71.5313,7 C71.5313,6.28125 71.3776,5.71354 71.0703,5.29688 C70.763,4.88021 70.349,4.67188 69.8281,4.67188 M69.8281,3.84375 C70.6823,3.84375 71.3542,4.1224 71.8438,4.67969 C72.3333,5.23698 72.5781,6.01042 72.5781,7 C72.5781,7.97917 72.3333,8.75 71.8438,9.3125 C71.3542,9.875 70.6823,10.1563 69.8281,10.1563 C68.9635,10.1563 68.2865,9.875 67.7969,9.3125 C67.3073,8.75 67.0625,7.97917 67.0625,7 C67.0625,6.01042 67.3073,5.23698 67.7969,4.67969 C68.2865,4.1224 68.9635,3.84375 69.8281,3.84375 M79.2031,6.375 L79.2031,10 L78.2188,10 L78.2188,6.40625 C78.2188,5.83333 78.1094,5.40625 77.8906,5.125 C77.6719,4.84375 77.3385,4.70313 76.8906,4.70313 C76.3594,4.70313 75.9401,4.8724 75.6328,5.21094 C75.3255,5.54948 75.1719,6.01042 75.1719,6.59375 L75.1719,10 L74.1719,10 L74.1719,3.98438 L75.1719,3.98438 L75.1719,4.92188 C75.401,4.55729 75.6771,4.28646 76,4.10938 C76.3229,3.93229 76.6927,3.84375 77.1094,3.84375 C77.7969,3.84375 78.3177,4.05729 78.6719,4.48438 C79.026,4.91146 79.2031,5.54167 79.2031,6.375 "/>
</g>

<g fill="none" stroke="#000000" stroke-opacity="1" stroke-width="1" stroke-linecap="square" stroke-linejoin="bevel" transform="matrix(1.99954,0,0,1.99954,572.08,7.99816)"
font-family="sans" font-size="11" font-weight="100" font-style="normal" 
>
</g>

<g fill="none" stroke="#000000" stroke-opacity="1" stroke-width="1" stroke-linecap="square" stroke-linejoin="bevel" transform="matrix(1.99954,0,0,1.99954,572.08,7.99816)"
font-family="Ubuntu" font-size="11" font-weight="400" font-style="normal" 
>
</g>

<g fill="none" stroke="#000000" stroke-opacity="1" stroke-width="1" stroke-linecap="square" stroke-linejoin="bevel" transform="matrix(1.99954,0,0,1.99954,-0.00799816,71.9835)"
font-family="Ubuntu" font-size="11" font-weight="400" font-style="normal" 
>
</g>

<g fill="#000000" fill-opacity="1" stroke="#000000" stroke-opacity="1" stroke-width="1" stroke-linecap="square" stroke-linejoin="round" transform="matrix(1.99954,0,0,1.99954,-0.00799816,71.9835)"
font-family="Ubuntu" font-size="11" font-weight="400" font-style="normal" 
>
<path vector-effect="none" fill-rule="evenodd" d="M363.74,-18 L363.74,-14.4125 L373.99,-18 L363.74,-21.5875 L363.74,-18"/>
</g>

<g fill="none" stroke="#000000" stroke-opacity="1" stroke-width="1" stroke-linecap="square" stroke-linejoin="bevel" transform="matrix(1.99954,0,0,1.99954,-0.00799816,71.9835)"
font-family="Ubuntu" font-size="11" font-weight="400" font-style="normal" 
>
</g>

<g fill="none" stroke="#000000" stroke-opacity="1" stroke-width="1" stroke-linecap="square" stroke-linejoin="bevel" transform="matrix(1,0,0,1,0,0)"
font-family="Ubuntu" font-size="11" font-weight="400" font-style="normal" 
>
</g>
</g>
</svg>
